# xmcd
#
# Track frame offsets:
#	150
#	9243
#	21114
#	32272
#	46345
#	57629
#	67063
#	77025
#	87644
#	97667
#	109097
#	118902
#
# Disc length: 1747 seconds
#
# Revision: 0
# Processed by: cddbd v1.5.2PL0 Copyright (c) Steve Scherf et al.
# Submitted via: EasyCDDAExtractor 8.2.3.1
#
DISCID=9306d10c
DTITLE=ARSEN ROULETTE - Let's Get On With It
DYEAR=2006
DGENRE=Blues
TTITLE0=Let's Get On With It
TTITLE1=Chance On Me
TTITLE2=Messed Up
TTITLE3=I Do For You
TTITLE4=Shake It Around
TTITLE5=Sounds That Charge
TTITLE6=Bop Away the Blues
TTITLE7=Honky Tonk Alone
TTITLE8=On the Prowl
TTITLE9=Lovin' On My Mind
TTITLE10=Shake Loose
TTITLE11=Strolling Back To You
EXTD=
EXTT0=
EXTT1=
EXTT2=
EXTT3=
EXTT4=
EXTT5=
EXTT6=
EXTT7=
EXTT8=
EXTT9=
EXTT10=
EXTT11=
PLAYORDER=
